Genre:Comedy | Drama | Romance
Language:English
IMDb:http://www.imdb.com/title/tt0889573/
Source Video:P2P Rus.Thanks
Source Audio:PolishBits.Thanks
....................................................
General
Complete name : The.Switch.2010.CAM.XVID.FEEL-FREE
Format : AVI
Format/Info : Audio Video Interleave
File size : 1.21 GiB
Duration : 1h 36mn
Overall bit rate : 1 799 Kbps
Writing library : VirtualDub build 32817/release
....................................................
Video
ID : 0
Format : MPEG-4 Visual
Format profile : AdvancedSimple@L5
Format settings, BVOP : Yes
Format settings, QPel : No
Format settings, GMC : No warppoints
Format settings, Matrix : Default (H.263)
Muxing mode : Packed bitstream
Codec ID : XVID
Codec ID/Hint : XviD
Duration : 1h 36mn
Bit rate : 1 661 Kbps
Width : 688 pixels
Height : 288 pixels
Display aspect ratio : 2.35:1
Frame rate : 25.000 fps
Resolution : 24 bits
Colorimetry : 4:2:0
Scan type : Progressive
Bits/(Pixel*Frame) : 0.335
Stream size : 1.12 GiB (92%)
Writing library : XviD 1.3.0.dev55
....................................................
Audio
ID : 1
Format : MPEG Audio
Format version : Version 1
Format profile : Layer 3
Format settings, Mode : Joint stereo / MS Stereo
Codec ID : 55
Codec ID/Hint : MP3
Duration : 1h 36mn
Bit rate mode : Constant
Bit rate : 128 Kbps
Channel(s) : 2 channels
Sampling rate : 44.1 KHz
Resolution : 16 bits
Stream size : 88.3 MiB (7%)
Alignment : Split accross interleaves
Interleave, duration : 40 ms (1.00 video frame)
Interleave, preload duration : 500 ms
...................................................
Plot:
An unmarried 40-year-old woman turns to a turkey baster in order to become pregnant. Seven years later, she reunites with her best friend, who has been living with a secret: he replaced her preferred sperm sample with his own
.................................................
Notes:Adjusted brightness,contrast,saturation
.................................................